<?xml version="1.0" encoding="utf-8"?>
<!-- Generator: Adobe Illustrator 25.1.0, SVG Export Plug-In . SVG Version: 6.00 Build 0)  -->
<svg version="1.1" id="Layer_1" xmlns="http://www.w3.org/2000/svg" xmlns:xlink="http://www.w3.org/1999/xlink" x="0px" y="0px"
	 viewBox="0 0 216 216" style="enable-background:new 0 0 216 216;" xml:space="preserve">
<style type="text/css">
	.st0{fill:#FFFFFF;}
	.st1{fill:#CCCCCC;}
	.st2{fill:#00627D;}
	.st3{fill:#E6E6E6;}
	.st4{fill:#A02932;}
</style>
<g>
	<rect x="68.5" y="59.5" class="st0" width="61" height="61"/>
	<path class="st1" d="M124,65v50H74V65H124 M135,54H63v72h72V54L135,54z"/>
</g>
<g>
	<rect x="56.5" y="65.5" class="st0" width="67" height="67"/>
	<path class="st2" d="M121,68v62H59V68H121 M126,63H54v72h72V63L126,63z"/>
</g>
<g>
	<g>
		<rect x="86" y="86" class="st0" width="62" height="62"/>
		<path class="st3" d="M143,91v52H91V91H143 M153,81H81v72h72V81L153,81z"/>
	</g>
	<g>
		<rect x="92.5" y="92.5" class="st0" width="67" height="67"/>
		<path class="st4" d="M157,95v62H95V95H157 M162,90H90v72h72V90L162,90z"/>
	</g>
</g>
</svg>
